<svg width="29" height="19" viewBox="0 0 29 19" fill="none" xmlns="http://www.w3.org/2000/svg">
<path d="M26.8281 19H2.17188C0.97235 19 0 18.0276 0 16.8281V2.17188C0 0.972406 0.97235 0 2.17188 0H26.8281C28.0276 0 29 0.97235 29 2.17188V16.8282C29 18.0276 28.0277 19 26.8281 19Z" fill="#FF4B55"/>
<path d="M16.8761 10.7439L20.6956 7.94141H15.9656L14.5 3.43066L13.0344 7.94141H8.30443L12.1239 10.7439L10.6696 15.2197L14.4963 12.4846L14.5 12.4874L14.5037 12.4846L18.3304 15.2197L16.8761 10.7439ZM17.6423 8.9414L16.5507 9.74241L16.2904 8.9414H17.6423V8.9414ZM13.2983 10.3653L13.761 8.94134H15.239L15.7017 10.3653L14.5 11.2471L13.2983 10.3653ZM14.5 6.667L14.914 7.94141H14.0859L14.5 6.667ZM11.3577 8.9414H12.7096L12.4493 9.74241L11.3577 8.9414ZM12.5593 12.6396L12.9729 11.3668L13.6476 11.8618L12.5593 12.6396ZM16.0272 11.3668L16.4407 12.6396L15.3526 11.8618L16.0272 11.3668Z" fill="#5A8250"/>
</svg>
