<svg width="29" height="19" viewBox="0 0 29 19" fill="none" xmlns="http://www.w3.org/2000/svg">
<path d="M26.8281 5.72205e-05H2.17188C0.97235 5.72205e-05 0 0.972407 0 2.17194V16.8282C0 18.0277 0.97235 19.0001 2.17188 19.0001H26.8281C28.0276 19.0001 29 18.0278 29 16.8282V2.17194C29 0.972407 28.0277 5.72205e-05 26.8281 5.72205e-05Z" fill="#41479B"/>
<path d="M28.9699 1.8129C28.7988 0.784359 27.9052 0 26.8281 0H26.263L17 6.06887V5.66095e-05H12V6.06893L2.73699 5.66095e-05H2.17188C1.09475 5.66095e-05 0.201244 0.784359 0.0300762 1.81295L7.94719 7.0001H0V12.0001H7.94719L0.0300762 17.1871C0.201244 18.2157 1.09475 19 2.17188 19H2.73699L12 12.9312V19H17V12.9312L26.263 19H26.8281C27.9052 19 28.7988 18.2157 28.9699 17.1871L21.0528 12H29V6.99999H21.0528L28.9699 1.8129Z" fill="#F5F5F5"/>
<path d="M16 5.72205e-05H13V8.00004H0V11.0001H13V19H16V11.0001H29V8.00004H16V5.72205e-05Z" fill="#FF4B55"/>
<path d="M1.40428 18.86L11.9725 12.0001H10.1357L0.522446 18.2403C0.757674 18.5148 1.05997 18.7299 1.40428 18.86Z" fill="#FF4B55"/>
<path d="M19.6196 12.0001H17.7829L28.0187 18.6443C28.3052 18.4562 28.5442 18.2021 28.7147 17.9037L19.6196 12.0001Z" fill="#FF4B55"/>
<path d="M0.22934 1.20078L9.16327 7.00005H11L0.876515 0.4286C0.604697 0.630921 0.382269 0.895432 0.22934 1.20078Z" fill="#FF4B55"/>
<path d="M18.8367 7.00004L28.4676 0.748334C28.2298 0.474703 27.9251 0.260828 27.5784 0.133217L17 7.00004H18.8367Z" fill="#FF4B55"/>
</svg>
